<?xml version="1.0" standalone="no"?>
<!DOCTYPE svg PUBLIC "-//W3C//DTD SVG 20010904//EN"
 "http://www.w3.org/TR/2001/REC-SVG-20010904/DTD/svg10.dtd">
<svg version="1.0" xmlns="http://www.w3.org/2000/svg"
 width="224.000000pt" height="224.000000pt" viewBox="0 0 224.000000 224.000000"
 preserveAspectRatio="xMidYMid meet">
<metadata>
Created by potrace 1.11, written by Peter Selinger 2001-2013
</metadata>
<g transform="translate(0.000000,224.000000) scale(0.100000,-0.100000)"
fill="#000000" stroke="none">
<path d="M179 1463 c-1 -10 0 -28 1 -40 1 -13 -4 -23 -10 -23 -6 0 -22 -11
-35 -25 -33 -32 -33 -78 0 -111 14 -14 25 -29 25 -33 0 -5 -15 -42 -34 -84
-36 -78 -55 -98 -87 -90 -11 3 -19 0 -19 -6 0 -6 11 -11 25 -11 32 0 32 -5 -7
-86 -26 -54 -29 -69 -20 -85 8 -13 9 -26 2 -45 -6 -15 -9 -28 -7 -30 3 -3 45
82 91 189 22 48 30 57 51 57 16 0 25 -6 25 -15 0 -8 4 -15 9 -15 5 0 11 7 15
15 3 8 16 15 28 15 20 -1 32 -21 87 -141 63 -137 87 -173 57 -86 -8 24 -13 53
-10 64 3 11 -8 51 -25 88 -17 37 -31 69 -31 71 0 2 14 4 30 4 17 0 30 4 30 9
0 5 -14 9 -30 9 -40 -1 -43 2 -85 97 l-35 80 25 22 c38 34 35 93 -7 128 -25
21 -32 35 -31 61 0 35 -26 51 -28 17z m49 -105 c15 -15 15 -61 0 -76 -26 -26
-88 0 -88 36 0 40 61 67 88 40z m4 -300 c-7 -7 -14 -3 -22 13 -12 21 -13 22
-26 5 -7 -10 -20 -16 -28 -14 -13 2 -12 11 10 58 l27 55 24 -53 c17 -37 22
-57 15 -64z"/>
<path d="M560 1313 c-43 -17 -67 -71 -40 -88 6 -4 4 -15 -6 -30 -36 -55 11
-101 101 -98 68 1 85 11 74 40 -7 20 -11 21 -45 11 -26 -7 -44 -7 -62 2 -34
15 -15 34 36 35 31 0 38 4 40 23 3 22 -6 26 -48 23 -23 -2 -43 15 -35 29 5 8
24 11 56 8 42 -4 48 -2 53 16 3 11 4 22 2 24 -7 7 -111 11 -126 5z"/>
<path d="M719 1256 c-1 -13 -1 -126 0 -143 1 -16 113 -18 142 -3 21 12 25 50
7 68 -8 8 -8 15 1 26 14 17 -1 55 -22 57 -61 7 -127 4 -128 -5z m99 -44 c2 -7
-7 -12 -22 -12 -16 0 -26 6 -26 15 0 18 42 15 48 -3z m3 -57 c0 -5 -12 -11
-26 -13 -18 -2 -25 1 -25 13 0 12 7 15 25 13 14 -2 26 -7 26 -13z"/>
<path d="M914 1261 c-2 -2 -4 -40 -4 -83 l0 -78 30 0 c27 0 30 3 30 30 0 17 4
30 9 30 6 0 18 -13 28 -30 14 -25 24 -30 58 -31 22 0 48 -2 57 -4 36 -7 54 23
60 98 2 18 8 27 20 27 18 0 19 -4 21 -78 1 -42 2 -43 32 -40 l30 3 0 80 0 79
-75 1 -75 0 -3 -50 c-2 -27 -9 -55 -16 -60 -8 -6 -16 -19 -18 -30 -3 -17 -9
-13 -31 23 l-28 43 26 33 c14 18 25 35 25 38 0 2 -13 4 -29 4 -20 0 -34 -8
-47 -28 -25 -37 -44 -36 -44 2 0 26 -3 29 -26 28 -14 -2 -27 -4 -30 -7z"/>
<path d="M1325 1262 c-3 -3 -5 -31 -5 -63 0 -72 21 -101 70 -100 19 0 52 0 73
0 l38 0 -3 83 c-3 81 -4 83 -28 83 -23 0 -25 -4 -28 -53 -2 -38 -8 -54 -21
-62 -27 -14 -39 5 -43 65 -3 44 -6 50 -25 51 -12 1 -25 -1 -28 -4z"/>
<path d="M1545 1245 c-31 -30 -32 -73 -4 -110 19 -23 28 -26 65 -23 46 3 53
-2 29 -22 -9 -8 -28 -10 -53 -5 -32 5 -41 3 -46 -11 -11 -28 16 -39 94 -36 24
1 42 9 58 27 19 23 22 37 22 114 0 88 0 89 -25 89 -14 0 -25 -5 -25 -10 0 -5
-9 -4 -19 2 -33 17 -71 11 -96 -15z m104 -49 c5 -27 -26 -48 -50 -35 -19 10
-25 39 -12 53 14 14 58 1 62 -18z"/>
<path d="M523 1022 c-20 -3 -23 -9 -23 -53 0 -37 4 -49 15 -49 11 0 15 11 15
40 0 33 3 40 20 40 17 0 20 -7 20 -40 0 -29 4 -40 15 -40 11 0 15 12 15 49 0
46 -2 49 -27 52 -16 2 -38 3 -50 1z"/>
<path d="M622 988 c-18 -18 -16 -98 3 -98 8 0 15 7 15 15 0 8 8 15 18 15 41 0
57 51 23 70 -26 13 -44 13 -59 -2z m48 -34 c0 -16 -16 -19 -25 -4 -8 13 4 32
16 25 5 -4 9 -13 9 -21z"/>
<path d="M722 988 c-17 -17 -15 -55 4 -62 25 -10 41 -7 57 9 13 13 16 13 27 0
14 -17 56 -20 65 -5 4 6 -6 10 -22 11 -24 0 -25 1 -8 8 11 5 23 7 28 4 4 -2 7
5 7 16 0 26 -35 37 -63 18 -19 -12 -24 -12 -35 -1 -16 17 -44 18 -60 2z m40
-40 c-15 -15 -26 -4 -18 18 5 13 9 15 18 6 9 -9 9 -15 0 -24z m88 22 c0 -5 -2
-10 -4 -10 -3 0 -8 5 -11 10 -3 6 -1 10 4 10 6 0 11 -4 11 -10z"/>
<path d="M899 990 c-5 -50 -2 -65 15 -68 11 -3 16 0 12 7 -4 6 -3 11 3 11 5 0
13 -4 16 -10 3 -5 13 -10 21 -10 12 0 12 4 4 20 -8 14 -8 26 0 40 8 16 8 20
-4 20 -8 0 -19 -7 -24 -16 -8 -15 -10 -15 -15 0 -7 18 -26 22 -28 6z"/>
<path d="M993 984 c-8 -20 1 -57 15 -62 7 -2 12 6 12 22 0 31 17 35 22 4 4
-31 26 -34 30 -3 4 33 22 33 26 0 2 -14 10 -25 18 -25 18 0 19 55 2 67 -22 14
-119 12 -125 -3z"/>
<path d="M1140 960 c0 -29 4 -40 15 -40 8 0 15 7 15 15 0 8 7 15 15 15 8 0 14
-6 13 -12 -2 -7 4 -13 12 -13 18 0 21 66 3 72 -7 3 -13 -2 -13 -11 0 -9 -7
-16 -15 -16 -8 0 -15 7 -15 15 0 8 -7 15 -15 15 -11 0 -15 -11 -15 -40z"/>
<path d="M1240 965 c0 -29 4 -36 27 -41 19 -5 30 -2 39 11 15 20 3 45 -22 45
-8 0 -14 5 -14 10 0 6 -7 10 -15 10 -10 0 -15 -11 -15 -35z m50 -9 c0 -3 -4
-8 -10 -11 -5 -3 -10 -1 -10 4 0 6 5 11 10 11 6 0 10 -2 10 -4z"/>
<path d="M1329 998 c-1 -1 -2 -20 -3 -40 -2 -26 2 -38 11 -38 7 0 13 7 13 15
0 8 4 15 9 15 5 0 11 -7 15 -15 6 -17 51 -20 61 -5 4 6 -5 10 -21 10 -32 0
-28 8 7 14 24 4 28 24 6 38 -20 13 -35 9 -57 -14 -20 -21 -21 -21 -18 -4 1 10
-3 21 -9 23 -7 3 -13 3 -14 1z m91 -22 c0 -2 -7 -7 -16 -10 -8 -3 -12 -2 -9 4
6 10 25 14 25 6z"/>
<path d="M1506 984 c-20 -20 -20 -29 0 -49 19 -18 55 -17 62 3 3 9 -3 13 -18
10 -13 -2 -25 3 -27 10 -3 7 5 12 22 12 16 0 25 5 23 12 -6 18 -45 19 -62 2z"/>
<path d="M1589 998 c-13 -55 1 -78 47 -78 34 0 35 1 32 37 -4 46 -28 58 -28
14 0 -31 -19 -45 -21 -16 -1 8 -2 20 -3 27 -1 10 -25 25 -27 16z"/>
<path d="M1691 987 c-15 -15 -14 -42 3 -57 17 -14 63 -10 56 5 -3 6 -13 9 -22
8 -10 -2 -18 4 -18 12 0 8 9 15 19 15 19 0 40 19 24 21 -36 6 -53 5 -62 -4z"/>
<path d="M1770 958 c0 -27 4 -38 15 -38 9 0 15 9 15 25 0 16 6 25 15 25 11 0
14 -7 11 -26 -4 -20 -1 -25 12 -22 9 2 17 12 17 22 0 11 5 21 11 23 7 2 11 -6
10 -19 0 -13 5 -24 15 -26 12 -2 15 5 14 27 -2 42 -8 46 -76 47 l-59 0 0 -38z"/>
<path d="M1932 988 c-27 -27 -6 -68 35 -68 30 0 30 20 1 21 -21 1 -21 2 -3 6
31 8 40 20 25 38 -15 18 -41 20 -58 3z m38 -12 c0 -3 -4 -8 -10 -11 -5 -3 -10
-1 -10 4 0 6 5 11 10 11 6 0 10 -2 10 -4z"/>
<path d="M2017 993 c-12 -11 -8 -61 5 -69 6 -4 14 -2 16 4 2 7 8 9 13 6 6 -3
16 0 24 6 12 10 15 9 15 -4 0 -9 5 -16 10 -16 6 0 10 18 10 40 0 45 -11 51
-35 18 l-15 -23 -6 23 c-6 21 -24 29 -37 15z"/>
<path d="M2130 976 c0 -13 3 -31 6 -40 7 -19 45 -21 62 -4 9 9 12 9 12 0 0 -7
7 -12 16 -12 11 0 14 9 12 37 -3 41 -28 59 -29 21 0 -12 -3 -17 -6 -10 -2 6
-13 12 -23 12 -10 0 -22 5 -25 10 -11 18 -25 10 -25 -14z m50 -26 c0 -5 -4
-10 -10 -10 -5 0 -10 5 -10 10 0 6 5 10 10 10 6 0 10 -4 10 -10z"/>
</g>
</svg>
