<?xml version="1.0" encoding="utf-8"?><svg xmlns="http://www.w3.org/2000/svg" xmlns:xlink="http://www.w3.org/1999/xlink"><symbol fill="none" viewBox="0 0 178 153" id="about-use-1" xmlns="http://www.w3.org/2000/svg"><circle cx="60" cy="93" r="59.5" fill="#F90" stroke="#F90"/><path fill-rule="evenodd" clip-rule="evenodd" d="M114 47c-8.837 0-16 7.163-16 16s7.163 16 16 16 16-7.163 16-16-7.163-16-16-16zM96 63c0-9.941 8.059-18 18-18s18 8.059 18 18-8.059 18-18 18-18-8.059-18-18z" fill="#000"/><path fill-rule="evenodd" clip-rule="evenodd" d="M114.5 2.005a10.36 10.36 0 00-10.361 10.36v.971a10.372 10.372 0 01-6.289 9.496.994.994 0 01-.395.081h-.248a10.377 10.377 0 01-11.248-2.16l-.008-.008-.34-.341a10.364 10.364 0 00-11.299-2.25 10.36 10.36 0 00-3.362 2.25 10.361 10.361 0 000 14.66l.348.35a10.377 10.377 0 012.088 11.417 10.377 10.377 0 01-9.485 6.763h-.535a10.36 10.36 0 000 20.721h.97A10.377 10.377 0 0173.83 80.6a10.378 10.378 0 01-2.077 11.442l-.008.008-.341.34a10.364 10.364 0 00-2.25 11.299 10.364 10.364 0 002.25 3.362v.001a10.375 10.375 0 007.33 3.039 10.368 10.368 0 007.33-3.039l.35-.349a10.378 10.378 0 0111.417-2.088 10.377 10.377 0 016.763 9.485v.535a10.36 10.36 0 0020.721 0v-.97a10.38 10.38 0 016.284-9.494 10.371 10.371 0 0111.442 2.077l.008.008.341.341a10.356 10.356 0 0011.298 2.249 10.347 10.347 0 003.362-2.249h.001a10.37 10.37 0 002.249-11.298 10.375 10.375 0 00-2.249-3.362l-.349-.35a10.378 10.378 0 01-2.078-11.442 10.38 10.38 0 019.495-6.284h.515a10.36 10.36 0 100-20.72h-.97a10.378 10.378 0 01-9.496-6.29.994.994 0 01-.081-.395v-.248a10.373 10.373 0 012.16-11.248l.008-.008.341-.34a10.361 10.361 0 000-14.661 10.368 10.368 0 00-7.33-3.04 10.362 10.362 0 00-7.331 3.04l-.349.348a10.377 10.377 0 01-11.441 2.078 10.375 10.375 0 01-6.284-9.495v-.515A10.36 10.36 0 00114.5 2.006zm-8.744 1.617a12.365 12.365 0 0121.11 8.744v.509a8.366 8.366 0 005.074 7.66l.01.004a8.372 8.372 0 009.23-1.67l.004-.004.333-.333a12.363 12.363 0 0117.497 0 12.37 12.37 0 010 17.498l-.333.331-.004.004a8.368 8.368 0 00-1.671 9.23.991.991 0 01.086.406v.242a8.375 8.375 0 007.578 4.891h.964a12.365 12.365 0 110 24.732h-.509a8.37 8.37 0 00-7.66 5.074l-.004.01a8.38 8.38 0 00-.579 4.873 8.382 8.382 0 002.253 4.361l.333.333a12.358 12.358 0 013.627 8.749 12.37 12.37 0 01-3.627 8.748 12.369 12.369 0 01-17.496 0l-.333-.333-.004-.004a8.373 8.373 0 00-9.231-1.671l-.01.005a8.378 8.378 0 00-5.074 7.659v.964a12.365 12.365 0 11-24.731 0v-.499a8.374 8.374 0 00-5.539-7.674 8.379 8.379 0 00-4.873-.579 8.377 8.377 0 00-4.357 2.25l-.004.003-.333.333a12.357 12.357 0 01-8.749 3.627 12.372 12.372 0 01-8.748-3.627 12.363 12.363 0 01-2.684-13.483 12.365 12.365 0 012.684-4.013l.333-.333a8.371 8.371 0 001.674-9.234l-.004-.01a8.372 8.372 0 00-7.66-5.075h-.963a12.366 12.366 0 110-24.731h.5a8.371 8.371 0 007.673-5.539 8.371 8.371 0 00-1.67-9.23l-.337-.337a12.367 12.367 0 010-17.497 12.366 12.366 0 0117.496 0l.337.337a8.372 8.372 0 009.23 1.67c.128-.056.266-.085.406-.085h.242a8.368 8.368 0 004.891-7.579v-.963c0-3.28 1.303-6.425 3.622-8.744z" fill="#000"/></symbol><symbol fill="none" viewBox="0 0 178 137" id="about-use-2" xmlns="http://www.w3.org/2000/svg"><circle cx="60" cy="77" r="60" fill="#F90"/><path fill-rule="evenodd" clip-rule="evenodd" d="M89.13 15.49a.973.973 0 011.333-.359l57.049 33.041c.466.27.626.87.357 1.338a.973.973 0 01-1.332.359L89.488 16.828a.982.982 0 01-.357-1.338z" fill="#000"/><path fill-rule="evenodd" clip-rule="evenodd" d="M111.502 1.875a13.998 13.998 0 0113.996 0l.002.001L171 27.881a14.006 14.006 0 017 12.113v52.012a14.004 14.004 0 01-7 12.113l-.004.002-45.496 26.003-.001.001a14.004 14.004 0 01-13.998 0l-.001-.001-45.496-26.003-.004-.002a14 14 0 01-7-12.113V39.994a14.005 14.005 0 017-12.113l.004-.002L111.5 1.876l.002-.001zM118.5 2c-2.106 0-4.176.555-6 1.608l-.004.003L67 29.614h-.002A12.002 12.002 0 0061 39.996v52.01a12.004 12.004 0 005.998 10.38l.002.001 45.5 26.006a12.003 12.003 0 0012 0l.004-.003L170 102.386l.002-.001A12.004 12.004 0 00176 92.005v-52.01a12.004 12.004 0 00-5.998-10.38l-.002-.001L124.504 3.61l-.004-.003a11.999 11.999 0 00-6-1.608z" fill="#000"/><path fill-rule="evenodd" clip-rule="evenodd" d="M61.133 33.488a.993.993 0 011.348-.357L118 64.896l55.518-31.765a.993.993 0 011.349.357.97.97 0 01-.36 1.334l-56.013 32.047a.996.996 0 01-.988 0L61.493 34.822a.97.97 0 01-.36-1.334z" fill="#000"/><path fill-rule="evenodd" clip-rule="evenodd" d="M118 65a.99.99 0 011 .978v64.045a.99.99 0 01-1 .977.99.99 0 01-1-.977V65.978a.99.99 0 011-.978z" fill="#000"/></symbol><symbol fill="none" viewBox="0 0 10 10" id="checked" xmlns="http://www.w3.org/2000/svg"><path d="M8.95 3.082L4 8.032 1.172 5.204" stroke="#97EE3F" stroke-width="2"/></symbol><symbol fill="none" viewBox="0 0 10 10" id="disableChecked" xmlns="http://www.w3.org/2000/svg"><path d="M8.95 3.082L4 8.032 1.172 5.204" stroke="#013220" stroke-width="2"/></symbol><symbol viewBox="0 0 24 24" id="facebook" xmlns="http://www.w3.org/2000/svg"><path d="M12 0C5.373 0 0 5.373 0 12c0 6.016 4.432 10.984 10.206 11.852V15.18H7.237v-3.154h2.969V9.927c0-3.475 1.693-5 4.581-5 1.383 0 2.115.103 2.461.149v2.753h-1.97c-1.226 0-1.654 1.163-1.654 2.473v1.724h3.593l-.487 3.154h-3.106v8.697C19.481 23.083 24 18.075 24 12c0-6.627-5.373-12-12-12z"/></symbol><symbol viewBox="0 0 19.2 19.2" id="instagram" xmlns="http://www.w3.org/2000/svg"><path d="M13.498 6.651a1.656 1.656 0 00-.95-.949 2.766 2.766 0 00-.928-.172c-.527-.024-.685-.03-2.02-.03s-1.493.006-2.02.03a2.766 2.766 0 00-.929.172 1.656 1.656 0 00-.949.95 2.766 2.766 0 00-.172.928c-.024.527-.03.685-.03 2.02s.006 1.493.03 2.02a2.766 2.766 0 00.172.929 1.656 1.656 0 00.95.949 2.766 2.766 0 00.928.172c.527.024.685.03 2.02.03s1.493-.006 2.02-.03a2.766 2.766 0 00.929-.172 1.656 1.656 0 00.949-.95 2.766 2.766 0 00.172-.928c.024-.527.03-.685.03-2.02s-.006-1.493-.03-2.02a2.766 2.766 0 00-.172-.929zM9.6 12.168A2.568 2.568 0 1112.168 9.6 2.568 2.568 0 019.6 12.168zm2.669-4.637a.6.6 0 11.6-.6.6.6 0 01-.6.6z"/><circle cx="9.6" cy="9.6" r="1.667"/><path d="M9.6 0a9.6 9.6 0 109.6 9.6A9.6 9.6 0 009.6 0zm4.97 11.662a3.67 3.67 0 01-.233 1.213 2.556 2.556 0 01-1.462 1.462 3.67 3.67 0 01-1.213.233c-.534.024-.704.03-2.062.03s-1.528-.006-2.062-.03a3.67 3.67 0 01-1.213-.233 2.556 2.556 0 01-1.462-1.462 3.67 3.67 0 01-.233-1.213c-.024-.534-.03-.704-.03-2.062s.006-1.528.03-2.062a3.67 3.67 0 01.233-1.213 2.556 2.556 0 011.462-1.462 3.67 3.67 0 011.213-.233c.534-.024.704-.03 2.062-.03s1.528.006 2.062.03a3.67 3.67 0 011.213.233 2.556 2.556 0 011.462 1.462 3.67 3.67 0 01.233 1.213c.024.534.03.704.03 2.062s-.006 1.528-.03 2.062z"/></symbol><symbol viewBox="0 0 44 44" id="loupe" xmlns="http://www.w3.org/2000/svg"><path d="M32.5 30c2.494-3.129 4-7.654 4-12 0-10.05-8.139-18-18-18C8.638 0 .5 7.95.5 18s8.138 18 18 18c4.193 0 7.953-1.534 11-4l11 12 3-3-11-11zm-14 2c-7.658 0-14-6.196-14-14s6.342-14 14-14 14 6.196 14 14-6.342 14-14 14z"/></symbol><symbol viewBox="0 0 50 50" id="vk" xmlns="http://www.w3.org/2000/svg"><path d="M25 2C12.318 2 2 12.318 2 25s10.318 23 23 23c12.683 0 23-10.318 23-23S37.683 2 25 2zm9.973 27.535c2.237 1.986 2.702 2.695 2.778 2.816.927 1.47-1.028 1.649-1.028 1.649h-4.12s-1.003.011-1.86-.557c-1.397-.915-2.86-2.689-3.888-2.381-.863.258-.855 1.424-.855 2.421 0 .357-.307.517-1 .517h-1.288c-2.257 0-4.706-.76-7.149-3.313-3.456-3.609-6.487-10.879-6.487-10.879s-.179-.366.016-.589c.221-.25.822-.218.822-.218L14.909 19s.376.071.646.261c.223.156.347.454.347.454s.671 2.216 1.526 3.629c1.67 2.758 2.447 2.828 3.014 2.531.828-.43.558-3.362.558-3.362s.037-1.259-.395-1.82c-.333-.434-.97-.665-1.248-.701-.225-.029.151-.423.63-.648.64-.285 1.511-.358 3.013-.344 1.169.011 1.506.081 1.962.186 1.379.318 1.038 1.157 1.038 4.103 0 .944-.13 2.271.582 2.711.307.19 1.359.422 3.231-2.618.889-1.442 1.596-3.834 1.596-3.834s.146-.263.373-.393c.232-.133.225-.13.543-.13S35.832 19 36.532 19c.699 0 1.355-.008 1.468.402.162.589-.516 2.607-2.234 4.797-2.823 3.594-3.136 3.258-.793 5.336z"/></symbol></svg>